HIERARCHY
ROOT Root
{
  OFFSET 0.0 0.0 0.0
  CHANNELS 6 Xposition Yposition Zposition Zrotation Yrotation Xrotation
  JOINT Hips
  {
    OFFSET 0.0 100.0 0.0
    CHANNELS 6 Xposition Yposition Zposition Zrotation Yrotation Xrotation
    JOINT Spine1
    {
      OFFSET 5.003913 -0.037094 -0.013727
      CHANNELS 3 Zrotation Yrotation Xrotation
      JOINT Spine2
      {
        OFFSET 7.125363 -1e-06 0.0
        CHANNELS 3 Zrotation Yrotation Xrotation
        JOINT Chest
        {
          OFFSET 7.594027 1e-06 0.0
          CHANNELS 3 Zrotation Yrotation Xrotation
          JOINT Neck1
          {
            OFFSET 26.313086 -0.460272 -0.181672
            CHANNELS 3 Zrotation Yrotation Xrotation
            JOINT Neck2
            {
              OFFSET 8.045911 0.0 0.0
              CHANNELS 3 Zrotation Yrotation Xrotation
              JOINT Head
              {
                OFFSET 6.432774 0.0 0.0
                CHANNELS 3 Zrotation Yrotation Xrotation
                JOINT HeadEnd
                {
                  OFFSET 16.169773 0.06451 0.00362
                  CHANNELS 3 Zrotation Yrotation Xrotation
                }
                JOINT Jaw
                {
                  OFFSET 0.108741 3.12938 0.002639
                  CHANNELS 3 Zrotation Yrotation Xrotation
                }
                JOINT LeftEye
                {
                  OFFSET 4.45173 8.166359 3.206392
                  CHANNELS 3 Zrotation Yrotation Xrotation
                }
                JOINT RightEye
                {
                  OFFSET 4.436895 8.135758 -3.222429
                  CHANNELS 3 Zrotation Yrotation Xrotation
                }
              }
            }
          }
          JOINT LeftShoulder
          {
            OFFSET 23.218927 5.195579 1.621656
            CHANNELS 3 Zrotation Yrotation Xrotation
            JOINT LeftArm
            {
              OFFSET 15.902118 2e-06 -2e-06
              CHANNELS 3 Zrotation Yrotation Xrotation
              JOINT LeftForeArm
              {
                OFFSET 28.739307 0.0 -1e-06
                CHANNELS 3 Zrotation Yrotation Xrotation
                JOINT LeftHand
                {
                  OFFSET 27.093981 -4e-06 0.0
                  CHANNELS 3 Zrotation Yrotation Xrotation
                  JOINT LeftHandThumb1
                  {
                    OFFSET 2.276781 3.380274 0.83384
                    CHANNELS 3 Zrotation Yrotation Xrotation
                    JOINT LeftHandThumb2
                    {
                      OFFSET 4.705309 -1e-06 -1e-06
                      CHANNELS 3 Zrotation Yrotation Xrotation
                      JOINT LeftHandThumb3
                      {
                        OFFSET 2.798515 0.0 3e-06
                        CHANNELS 3 Zrotation Yrotation Xrotation
                        JOINT LeftHandThumbEnd
                        {
                          OFFSET 3.180793 4e-06 -4e-06
                          CHANNELS 3 Zrotation Yrotation Xrotation
                        }
                      }
                    }
                  }
                  JOINT LeftHandIndex1
                  {
                    OFFSET 3.247786 2.352677 0.137192
                    CHANNELS 3 Zrotation Yrotation Xrotation
                    JOINT LeftHandIndex2
                    {
                      OFFSET 6.367095 1e-06 0.0
                      CHANNELS 3 Zrotation Yrotation Xrotation
                      JOINT LeftHandIndex3
                      {
                        OFFSET 3.662364 0.0 0.0
                        CHANNELS 3 Zrotation Yrotation Xrotation
                        JOINT LeftHandIndex4
                        {
                          OFFSET 2.329242 4e-06 -4e-06
                          CHANNELS 3 Zrotation Yrotation Xrotation
                          JOINT LeftHandIndexEnd
                          {
                            OFFSET 2.767823 1e-06 0.0
                            CHANNELS 3 Zrotation Yrotation Xrotation
                          }
                        }
                      }
                    }
                  }
                  JOINT LeftHandMiddle1
                  {
                    OFFSET 3.163612 0.945023 -0.406112
                    CHANNELS 3 Zrotation Yrotation Xrotation
                    JOINT LeftHandMiddle2
                    {
                      OFFSET 6.276789 3e-06 0.0
                      CHANNELS 3 Zrotation Yrotation Xrotation
                      JOINT LeftHandMiddle3
                      {
                        OFFSET 4.35652 -1e-06 4e-06
                        CHANNELS 3 Zrotation Yrotation Xrotation
                        JOINT LeftHandMiddle4
                        {
                          OFFSET 2.996877 0.0 8e-06
                          CHANNELS 3 Zrotation Yrotation Xrotation
                          JOINT LeftHandMiddleEnd
                          {
                            OFFSET 2.323256 3e-06 -4e-06
                            CHANNELS 3 Zrotation Yrotation Xrotation
                          }
                        }
                      }
                    }
                  }
                  JOINT LeftHandRing1
                  {
                    OFFSET 2.882606 -0.309162 0.107445
                    CHANNELS 3 Zrotation Yrotation Xrotation
                    JOINT LeftHandRing2
                    {
                      OFFSET 6.033198 0.0 4e-06
                      CHANNELS 3 Zrotation Yrotation Xrotation
                      JOINT LeftHandRing3
                      {
                        OFFSET 4.350578 3e-06 0.0
                        CHANNELS 3 Zrotation Yrotation Xrotation
                        JOINT LeftHandRing4
                        {
                          OFFSET 2.651321 2e-06 -7e-06
                          CHANNELS 3 Zrotation Yrotation Xrotation
                          JOINT LeftHandRingEnd
                          {
                            OFFSET 1.937663 1e-06 -4e-06
                            CHANNELS 3 Zrotation Yrotation Xrotation
                          }
                        }
                      }
                    }
                  }
                  JOINT LeftHandPinky1
                  {
                    OFFSET 2.865315 -1.525436 0.575687
                    CHANNELS 3 Zrotation Yrotation Xrotation
                    JOINT LeftHandPinky2
                    {
                      OFFSET 5.54936 1e-06 -8e-06
                      CHANNELS 3 Zrotation Yrotation Xrotation
                      JOINT LeftHandPinky3
                      {
                        OFFSET 3.070974 0.0 -4e-06
                        CHANNELS 3 Zrotation Yrotation Xrotation
                        JOINT LeftHandPinky4
                        {
                          OFFSET 1.549672 1e-06 0.0
                          CHANNELS 3 Zrotation Yrotation Xrotation
                          JOINT LeftHandPinkyEnd
                          {
                            OFFSET 1.952123 0.0 0.0
                            CHANNELS 3 Zrotation Yrotation Xrotation
                          }
                        }
                      }
                    }
                  }
                }
              }
            }
          }
          JOINT RightShoulder
          {
            OFFSET 23.161716 5.296122 -1.380114
            CHANNELS 3 Zrotation Yrotation Xrotation
            JOINT RightArm
            {
              OFFSET -16.027195 -2e-06 1.1e-05
              CHANNELS 3 Zrotation Yrotation Xrotation
              JOINT RightForeArm
              {
                OFFSET -28.736639 4e-06 2e-06
                CHANNELS 3 Zrotation Yrotation Xrotation
                JOINT RightHand
                {
                  OFFSET -27.133619 6e-06 0.0
                  CHANNELS 3 Zrotation Yrotation Xrotation
                  JOINT RightHandThumb1
                  {
                    OFFSET -2.274328 -3.351035 -0.83067
                    CHANNELS 3 Zrotation Yrotation Xrotation
                    JOINT RightHandThumb2
                    {
                      OFFSET -4.703594 -3e-06 2e-06
                      CHANNELS 3 Zrotation Yrotation Xrotation
                      JOINT RightHandThumb3
                      {
                        OFFSET -2.794935 -4e-06 -3e-06
                        CHANNELS 3 Zrotation Yrotation Xrotation
                        JOINT RightHandThumbEnd
                        {
                          OFFSET -3.183852 4e-06 1e-06
                          CHANNELS 3 Zrotation Yrotation Xrotation
                        }
                      }
                    }
                  }
                  JOINT RightHandIndex1
                  {
                    OFFSET -3.253496 -2.33755 -0.127667
                    CHANNELS 3 Zrotation Yrotation Xrotation
                    JOINT RightHandIndex2
                    {
                      OFFSET -6.344434 0.0 0.0
                      CHANNELS 3 Zrotation Yrotation Xrotation
                      JOINT RightHandIndex3
                      {
                        OFFSET -3.654871 0.0 -8e-06
                        CHANNELS 3 Zrotation Yrotation Xrotation
                        JOINT RightHandIndex4
                        {
                          OFFSET -2.327586 -1e-06 0.0
                          CHANNELS 3 Zrotation Yrotation Xrotation
                          JOINT RightHandIndexEnd
                          {
                            OFFSET -2.770001 3e-06 8e-06
                            CHANNELS 3 Zrotation Yrotation Xrotation
                          }
                        }
                      }
                    }
                  }
                  JOINT RightHandMiddle1
                  {
                    OFFSET -3.168223 -0.944764 0.411762
                    CHANNELS 3 Zrotation Yrotation Xrotation
                    JOINT RightHandMiddle2
                    {
                      OFFSET -6.266691 -1e-06 -4e-06
                      CHANNELS 3 Zrotation Yrotation Xrotation
                      JOINT RightHandMiddle3
                      {
                        OFFSET -4.348901 0.0 0.0
                        CHANNELS 3 Zrotation Yrotation Xrotation
                        JOINT RightHandMiddle4
                        {
                          OFFSET -3.00024 2e-06 -4e-06
                          CHANNELS 3 Zrotation Yrotation Xrotation
                          JOINT RightHandMiddleEnd
                          {
                            OFFSET -2.321477 -4e-06 -4e-06
                            CHANNELS 3 Zrotation Yrotation Xrotation
                          }
                        }
                      }
                    }
                  }
                  JOINT RightHandRing1
                  {
                    OFFSET -2.885654 0.293261 -0.119232
                    CHANNELS 3 Zrotation Yrotation Xrotation
                    JOINT RightHandRing2
                    {
                      OFFSET -6.032835 -1e-06 -4e-06
                      CHANNELS 3 Zrotation Yrotation Xrotation
                      JOINT RightHandRing3
                      {
                        OFFSET -4.33881 0.0 -4e-06
                        CHANNELS 3 Zrotation Yrotation Xrotation
                        JOINT RightHandRing4
                        {
                          OFFSET -2.654903 -4e-06 -4e-06
                          CHANNELS 3 Zrotation Yrotation Xrotation
                          JOINT RightHandRingEnd
                          {
                            OFFSET -1.935122 0.0 4e-06
                            CHANNELS 3 Zrotation Yrotation Xrotation
                          }
                        }
                      }
                    }
                  }
                  JOINT RightHandPinky1
                  {
                    OFFSET -2.866241 1.503904 -0.60527
                    CHANNELS 3 Zrotation Yrotation Xrotation
                    JOINT RightHandPinky2
                    {
                      OFFSET -5.553177 -2e-06 0.0
                      CHANNELS 3 Zrotation Yrotation Xrotation
                      JOINT RightHandPinky3
                      {
                        OFFSET -3.062664 -1e-06 -4e-06
                        CHANNELS 3 Zrotation Yrotation Xrotation
                        JOINT RightHandPinky4
                        {
                          OFFSET -1.546529 2e-06 4e-06
                          CHANNELS 3 Zrotation Yrotation Xrotation
                          JOINT RightHandPinkyEnd
                          {
                            OFFSET -1.952341 0.0 -4e-06
                            CHANNELS 3 Zrotation Yrotation Xrotation
                          }
                        }
                      }
                    }
                  }
                }
              }
            }
          }
        }
      }
    }
    JOINT LeftLeg
    {
      OFFSET -8.443107 2.567604 10.043214
      CHANNELS 3 Zrotation Yrotation Xrotation
      JOINT LeftShin
      {
        OFFSET 43.229198 1e-06 -1e-06
        CHANNELS 3 Zrotation Yrotation Xrotation
        JOINT LeftFoot
        {
          OFFSET 42.298611 1e-06 1e-06
          CHANNELS 3 Zrotation Yrotation Xrotation
          JOINT LeftToeBase
          {
            OFFSET 14.165858 1e-06 0.0
            CHANNELS 3 Zrotation Yrotation Xrotation
            JOINT LeftToeEnd
            {
              OFFSET 6.7141 -0.234461 0.0
              CHANNELS 3 Zrotation Yrotation Xrotation
            }
          }
        }
      }
    }
    JOINT RightLeg
    {
      OFFSET -8.303923 2.592729 -10.047278
      CHANNELS 3 Zrotation Yrotation Xrotation
      JOINT RightShin
      {
        OFFSET -43.369682 0.0 1e-06
        CHANNELS 3 Zrotation Yrotation Xrotation
        JOINT RightFoot
        {
          OFFSET -42.260784 4e-06 2e-06
          CHANNELS 3 Zrotation Yrotation Xrotation
          JOINT RightToeBase
          {
            OFFSET -14.222245 -2e-06 -1e-06
            CHANNELS 3 Zrotation Yrotation Xrotation
            JOINT RightToeEnd
            {
              OFFSET -6.660062 0.232574 -2e-06
              CHANNELS 3 Zrotation Yrotation Xrotation
            }
          }
        }
      }
    }
  }
}
MOTION
Frames: 4
Frame Time: 0.03333333333333333
0.0 0.0 0.0 0.0 -0.0 0.0 0.736833 100.157913 0.214943 89.901398 -4.795972 94.035027 -5.286743 -1.062031 0.091883 -13.16851 -0.693928 0.561653 10.560124 -2.77568 -2.978795 30.365709 3.087182 2.354563 -1.983361 -0.853276 -0.664939 5.760263 5.447701 -2.69555 6e-06 0.0 -0.0 -0.218808 0.031218 -0.094237 0.063122 0.253946 -0.16777 0.085706 -0.18883 -0.025712 -28.346451 -70.330704 39.827 5.615397 39.291866 -73.665756 7.813737 -0.576157 -0.768664 -1.676697 5.368147 -20.010578 17.636631 -26.322739 52.411201 -19.466665 -14.395597 29.410395 -1e-06 -8.77482 -2e-06 15.076253 -17.138018 5.896369 -0.609775 -1.795654 -3.889328 -4.80709 -11.046812 -2.937851 3e-06 -20.976019 -0.0 -5.019967 -25.03356 -4.031881 5e-06 -0.0 0.0 -10.634533 -5.686971 -3.565588 10.573277 -17.922951 -3.113901 3e-06 -13.821212 -0.0 -0.501776 -31.181505 -4.027015 -12.047259 -58.382233 8.37046 -13.982714 -7.150198 -2.875042 13.77273 -8.401492 -3.218242 0.347733 -34.211555 0.771656 -0.963029 -17.733374 2.621021 0.0 -1e-06 0.0 -17.346422 -20.095221 -4.20178 21.757559 -1.638373 3.866428 -0.0 -6.338824 1e-06 -1.69759 -22.591747 -6.194008 0.0 -4e-06 -1e-06 175.051178 -60.781651 14.413386 -2.558854 25.026693 -67.890884 19.959997 -2.693354 -2.734694 -16.206675 12.422915 -9.702974 22.182114 -20.375895 49.933319 -16.701811 -16.743528 28.476528 -3e-06 -12.690599 -1e-06 15.809719 -16.882458 2.376742 -0.105919 -1.513856 -4.275881 -5.039042 -5.61287 -2.953555 6e-06 -11.020524 -1e-06 -6.111296 -15.895334 -3.840469 -2e-06 -0.0 -1e-06 -10.283369 -5.680287 -4.341839 11.028294 -11.302407 -2.372633 -1.384268 -14.238582 -6.320121 -0.625438 -26.924194 -3.827601 -4.586691 -49.381252 -4.084423 -13.708526 -7.363475 -3.720939 18.141148 -14.052739 -3.242674 8e-06 -18.787271 -1e-06 -0.429709 -8.456043 2.555503 0.0 1e-06 1e-06 -15.923534 -20.094482 -5.473584 30.41921 -7.190827 1.735926 3e-06 -8.162925 -1e-06 -1.861901 -22.861473 -6.167942 -1e-06 -3e-06 -0.0 178.644104 -5.227872 2.382393 5.643711 -0.126034 0.159253 -78.531792 1.759903 -7.592667 -5.312095 1.35656 2.110631 -0.999999 0.0 -0.0 0.717783 -4.96186 -4.028874 5.740682 -0.037315 0.017954 -78.939178 -2.024254 -8.719747 -5.849085 0.856646 1.724104 -1.000001 0.0 0.0 
0.0 0.0 0.0 0.0 -0.0 0.0 0.673054 100.171913 0.153663 89.855057 -4.930878 94.01165 -5.259398 -1.036521 0.109883 -13.182158 -0.68185 0.575532 10.564608 -2.771272 -2.959034 30.853727 3.106097 2.330812 -1.973849 -0.815118 -0.666032 5.711508 5.484229 -2.720221 6e-06 -0.0 0.0 -0.218826 0.025123 -0.082117 0.070975 0.245369 -0.161475 0.09214 -0.192163 -0.007451 -28.340364 -70.314262 39.746143 5.574905 38.886673 -73.14756 8.000699 -0.523665 -0.770491 -1.774084 5.329725 -20.122103 17.636633 -26.322733 52.411182 -19.466654 -14.395596 29.410385 -1e-06 -8.774818 -3e-06 15.054034 -17.166792 5.917464 -0.609775 -1.795653 -3.889327 -4.807087 -11.046809 -2.937849 3e-06 -20.976015 3e-06 -5.019971 -25.033558 -4.031877 5e-06 0.0 -3e-06 -10.634537 -5.68697 -3.565587 10.573274 -17.922947 -3.113899 3e-06 -13.821211 2e-06 -0.50178 -31.181501 -4.027012 -12.010059 -58.347656 8.327273 -13.982708 -7.150196 -2.875041 13.772729 -8.40149 -3.21824 0.34773 -34.211552 0.77166 -0.963032 -17.733372 2.621021 0.0 0.0 0.0 -17.346418 -20.095211 -4.201779 21.757557 -1.638375 3.866428 1e-06 -6.338823 1e-06 -1.697592 -22.591747 -6.194002 -1e-06 -4e-06 -2e-06 174.686005 -60.858974 14.802499 -2.421572 25.270166 -67.862373 19.931978 -2.642942 -2.760469 -16.335926 12.555039 -9.60123 22.18211 -20.375891 49.933319 -16.701815 -16.743526 28.476534 -3e-06 -12.690601 -1e-06 15.828773 -16.899799 2.382058 -0.105918 -1.513856 -4.275882 -5.039042 -5.612872 -2.953557 5e-06 -11.020523 -2e-06 -6.1113 -15.895338 -3.840472 -1e-06 2e-06 -1e-06 -10.283369 -5.680289 -4.341841 11.028294 -11.302405 -2.372633 -1.384269 -14.238578 -6.320122 -0.625439 -26.924191 -3.827602 -4.613925 -49.52895 -4.078254 -13.708524 -7.363477 -3.720941 18.14115 -14.052739 -3.242676 7e-06 -18.78727 -2e-06 -0.429713 -8.456043 2.555503 1e-06 0.0 0.0 -15.923536 -20.094486 -5.473586 30.41921 -7.190824 1.735925 2e-06 -8.162925 -1e-06 -1.861902 -22.861469 -6.167944 0.0 -1e-06 -2e-06 178.467194 -5.311879 2.438575 5.643125 -0.124932 0.141111 -78.477592 1.698377 -7.576104 -5.303567 1.364086 2.107326 -0.999999 0.0 0.0 0.557735 -4.876483 -4.030511 5.688539 -0.037874 0.012039 -78.873619 -2.042001 -8.637915 -5.888443 0.858951 1.718182 -1.000003 0.0 -0.0 
0.0 0.0 0.0 0.0 -0.0 0.0 0.628114 100.187805 0.091808 89.822098 -5.082744 93.967903 -5.243161 -1.019033 0.109437 -13.215322 -0.674742 0.589128 10.584688 -2.76186 -2.915553 31.338627 3.121691 2.309777 -1.963397 -0.801154 -0.654764 5.67776 5.480202 -2.795641 6e-06 0.0 -0.0 -0.219578 0.021443 -0.073188 0.077009 0.241614 -0.158947 0.094135 -0.195177 0.008223 -28.363045 -70.308739 39.707642 5.600883 38.505444 -72.566628 8.236023 -0.498499 -0.781062 -1.825973 5.25884 -20.241224 17.636623 -26.322727 52.411182 -19.466654 -14.395596 29.410378 -1e-06 -8.774817 -2e-06 15.013638 -17.203693 5.94432 -0.609777 -1.795653 -3.889327 -4.807092 -11.046809 -2.937849 4e-06 -20.976013 1e-06 -5.019972 -25.03356 -4.031878 5e-06 -0.0 -4e-06 -10.634531 -5.686968 -3.565587 10.573271 -17.922945 -3.113899 3e-06 -13.821209 1e-06 -0.501779 -31.181498 -4.027011 -11.998873 -58.278854 8.295354 -13.982709 -7.150196 -2.875041 13.772726 -8.401491 -3.21824 0.347734 -34.211536 0.771656 -0.963029 -17.733366 2.62102 1e-06 -1e-06 1e-06 -17.346413 -20.095213 -4.20178 21.757553 -1.638374 3.866428 1e-06 -6.338823 1e-06 -1.697588 -22.591742 -6.194004 0.0 -4e-06 -2e-06 174.499756 -60.924953 15.107579 -2.303776 25.494677 -67.967766 19.825274 -2.56121 -2.72545 -16.466537 12.739694 -9.530655 22.182112 -20.375895 49.933323 -16.701815 -16.743526 28.476534 -4e-06 -12.690599 -1e-06 15.868529 -16.973494 2.359016 -0.105919 -1.513856 -4.275882 -5.03904 -5.61287 -2.953557 6e-06 -11.020523 -1e-06 -6.111297 -15.895332 -3.840471 1e-06 -2e-06 0.0 -10.283367 -5.680287 -4.341839 11.028293 -11.302404 -2.372633 -1.384268 -14.238577 -6.320121 -0.625436 -26.924187 -3.8276 -4.659914 -49.657925 -4.072743 -13.708522 -7.363473 -3.72094 18.141148 -14.052739 -3.242674 9e-06 -18.78727 -3e-06 -0.429711 -8.456044 2.555503 -1e-06 -0.0 0.0 -15.923531 -20.094481 -5.473586 30.41921 -7.190826 1.735927 2e-06 -8.162925 -1e-06 -1.861902 -22.861471 -6.16794 -1e-06 -2e-06 -2e-06 178.252838 -5.368748 2.513853 5.682643 -0.123218 0.107847 -78.425392 1.602845 -7.529387 -5.265942 1.361262 2.102549 -1.0 0.0 0.0 0.371504 -4.821383 -4.104373 5.645042 -0.03933 0.011046 -78.809128 -1.955245 -8.565355 -5.908788 0.867163 1.714598 -1.000003 -0.0 0.0 
0.0 0.0 0.0 0.0 -0.0 0.0 0.59851 100.203415 0.030979 89.806313 -5.239009 93.897285 -5.234865 -1.014614 0.088332 -13.246601 -0.677113 0.595076 10.607837 -2.755418 -2.876712 31.807552 3.108976 2.320014 -1.95431 -0.784952 -0.635549 5.721327 5.438796 -2.859125 8e-06 0.0 -0.0 -0.22327 0.02037 -0.066955 0.07324 0.245752 -0.160115 0.087658 -0.200736 0.021451 -28.520082 -70.294716 39.839298 5.658961 38.17429 -72.015472 8.482017 -0.495215 -0.803296 -1.832077 5.141784 -20.274927 17.636621 -26.322733 52.411194 -19.466656 -14.395598 29.410385 -1e-06 -8.774817 -1e-06 14.996161 -17.242027 5.955244 -0.609777 -1.795653 -3.889327 -4.807088 -11.046807 -2.937849 1e-06 -20.976013 1e-06 -5.019969 -25.033554 -4.031878 5e-06 0.0 -1e-06 -10.634531 -5.686969 -3.565588 10.573272 -17.922947 -3.1139 2e-06 -13.821206 1e-06 -0.501781 -31.181498 -4.02701 -12.012592 -58.227249 8.283182 -13.982711 -7.150197 -2.875042 13.772725 -8.401489 -3.21824 0.347733 -34.211544 0.771657 -0.963028 -17.733366 2.621018 1e-06 -1e-06 1e-06 -17.346413 -20.095213 -4.201781 21.757555 -1.638374 3.866427 1e-06 -6.338821 1e-06 -1.697591 -22.591742 -6.194003 -0.0 -5e-06 -1e-06 174.498001 -60.97488 15.276019 -2.229184 25.683813 -68.319313 19.677252 -2.540383 -2.647762 -16.61031 13.067816 -9.451368 22.182106 -20.375889 49.933323 -16.701815 -16.743526 28.476536 -4e-06 -12.690602 -1e-06 15.924889 -17.059639 2.324087 -0.105918 -1.513856 -4.275881 -5.039042 -5.612872 -2.953557 6e-06 -11.02052 -2e-06 -6.111298 -15.895334 -3.840472 0.0 -2e-06 -1e-06 -10.283369 -5.680288 -4.341837 11.028294 -11.302406 -2.372634 -1.384268 -14.23858 -6.320122 -0.625436 -26.924191 -3.827604 -4.692269 -49.779884 -4.092104 -13.708524 -7.363476 -3.72094 18.141148 -14.052738 -3.242676 8e-06 -18.787266 -3e-06 -0.429711 -8.456042 2.555502 -1e-06 1e-06 1e-06 -15.923531 -20.094482 -5.473588 30.41921 -7.190825 1.735924 3e-06 -8.162925 -2e-06 -1.861899 -22.861469 -6.167943 1e-06 -2e-06 -0.0 178.022522 -5.395919 2.550798 5.757735 -0.120132 0.068885 -78.381935 1.502797 -7.49203 -5.215675 1.344102 2.098267 -1.0 0.0 -0.0 0.160717 -4.793916 -4.198048 5.641192 -0.043058 0.018358 -78.76786 -1.812346 -8.515452 -5.891632 0.875909 1.712844 -1.000002 0.0 0.0 
